<svg version="1.1" xmlns="http://www.w3.org/2000/svg" xmlns:xlink="http://www.w3.org/1999/xlink" x="0px" y="0px" viewBox="0 0 105 39" style="enable-background:new 0 0 105 39;" xml:space="preserve">
                <path class="logo-path" d="M22.8,14.8l-4.1,14l-4.1-14L10.3,0.7H0v37.6h6.4L6.4,19.8L6.2,7.6l3.5,12.1l5.5,18.5h6.7l5.5-18.5l3.5-12.1
      l-0.2,12.1l-0.1,18.5h6.6V0.7H27L22.8,14.8z" />
                <path class="logo-path" d="M57,0C46.9,0,40,6.9,40,19.5C40,32.1,46.8,39,57,39c9.2,0,15.9-5.9,16.8-16.5h-7c-0.7,7-4.5,10.7-9.7,10.7
      c-5.9,0-9.8-4.7-9.8-13.8s3.9-13.8,9.8-13.8c4.4,0,7.9,2.7,9.2,7.8h7.1C71.7,4.8,65.3,0,57,0z" />
                <path class="logo-path" d="M85.7,32.9c4.2-3.8,7.3-6.6,10-8.9c8-6.8,9.1-10.3,9.1-13.9C104.8,4.3,99.2,0,91.9,0
      c-8.7,0.1-14.1,4.8-15.4,13.6h6.8c1.1-5.4,4-8.1,8.4-8.1c3.8,0,6.2,2.3,6.2,5.2c0,2.9-1,4.8-7.6,10.8c-3.1,2.8-7.2,6.6-13.1,11.7
      v5.1H105v-5.6L85.7,32.9L85.7,32.9z" />
              </svg>